<svg width="12" height="28" viewBox="0 0 12 28" fill="none" xmlns="http://www.w3.org/2000/svg">
<path d="M6.01111 0.468109C6.30488 0.345207 6.64266 0.483722 6.76556 0.777491L8.76837 5.56474C8.89127 5.85851 8.75276 6.19629 8.45899 6.31919C8.16522 6.44209 7.82744 6.30358 7.70454 6.00981L5.92426 1.75448L1.66893 3.53475C1.37516 3.65765 1.03738 3.51914 0.914479 3.22537C0.791576 2.9316 0.930092 2.59382 1.22386 2.47092L6.01111 0.468109ZM10.8424 26.8489L10.4467 27.2683C5.73406 22.8221 3.32294 19.0533 2.73692 14.9077C2.15419 10.7853 3.3955 6.40134 5.70017 0.78126L6.23365 1.00003L6.76712 1.21879C4.46942 6.82189 3.34271 10.9541 3.87875 14.7463C4.41151 18.5151 6.60594 22.0592 11.2381 26.4295L10.8424 26.8489Z" fill="url(#paint0_linear_99_43)"/>
<defs>
<linearGradient id="paint0_linear_99_43" x1="5.87906" y1="0.334153" x2="9.51011" y2="26.4804" gradientUnits="userSpaceOnUse">
<stop stop-color="white"/>
<stop offset="1" stop-color="white" stop-opacity="0"/>
</linearGradient>
</defs>
</svg>
