<svg width="18" height="24" viewBox="0 0 18 24" fill="none" xmlns="http://www.w3.org/2000/svg">
<path d="M13.8717 0.154293C13.6384 -0.0625065 13.2736 -0.0491743 13.0568 0.184072L9.52384 3.98503C9.30704 4.21828 9.32037 4.58311 9.55362 4.79991C9.78686 5.01671 10.1517 5.00338 10.3685 4.77013L13.5089 1.3915L16.8875 4.5319C17.1208 4.74869 17.4856 4.73536 17.7024 4.50212C17.9192 4.26887 17.9059 3.90404 17.6726 3.68724L13.8717 0.154293ZM0.226501 23.2432L0.45299 23.7734C6.41126 21.2284 9.97563 18.5243 11.9574 14.8361C13.928 11.1687 14.2772 6.62579 14.0553 0.555565L13.4791 0.576622L12.9029 0.597678C13.1241 6.64956 12.7543 10.9167 10.9415 14.2903C9.13992 17.6433 5.85648 20.2114 1.31114e-05 22.7129L0.226501 23.2432Z" fill="url(#paint0_linear_201_408)"/>
<defs>
<linearGradient id="paint0_linear_201_408" x1="14.0419" y1="0.074187" x2="1.60409" y2="23.3575" gradientUnits="userSpaceOnUse">
<stop stop-color="white"/>
<stop offset="1" stop-color="white" stop-opacity="0"/>
</linearGradient>
</defs>
</svg>
