<svg width="25" height="24" viewBox="0 0 25 24" fill="none" xmlns="http://www.w3.org/2000/svg">
<path d="M1.69183 10.1681C8.30035 6.83521 12.706 4.63783 14.9089 3.57607C21.2057 0.544509 22.5125 0.0179929 23.3661 0.000155417C23.5537 -0.00333003 23.9717 0.0503873 24.2444 0.305641C24.471 0.520935 24.5348 0.812063 24.5666 1.01648C24.595 1.2207 24.634 1.68611 24.6021 2.04942C24.262 6.19921 22.7852 16.2694 22.0344 20.9173C21.7192 22.8841 21.0924 23.5433 20.4868 23.6078C19.1693 23.748 18.1706 22.6007 16.8957 21.6334C14.9018 20.119 13.7756 19.1766 11.8383 17.6993C9.6001 15.9918 11.0521 15.0532 12.3271 13.5196C12.66 13.1181 18.461 7.01029 18.5708 6.4563C18.585 6.38701 18.5991 6.12867 18.4646 5.99253C18.3335 5.85598 18.1388 5.90273 17.9971 5.93964C17.7953 5.99213 14.6114 8.43115 8.43493 13.2563C7.53184 13.9755 6.71375 14.3262 5.9771 14.3077C5.16963 14.2876 3.61136 13.7779 2.45326 13.3424C1.03665 12.8081 -0.0930993 12.5256 0.0060647 11.6181C0.0556453 11.1457 0.618745 10.6623 1.69183 10.1681Z" fill="white"/>
</svg>
